<svg version="1.1" id="Layer_1" xmlns="http://www.w3.org/2000/svg" xmlns:xlink="http://www.w3.org/1999/xlink" x="0px" y="0px"
	 width="100%" viewBox="0 0 667 532" enable-background="new 0 0 667 532" xml:space="preserve">
<path fill="#04354E" opacity="1.000000" stroke="none" 
	d="
M348.000000,533.000000 
	C232.000000,533.000000 116.500000,533.000000 1.000000,533.000000 
	C1.000000,355.666656 1.000000,178.333328 1.000000,1.000000 
	C223.333328,1.000000 445.666656,1.000000 668.000000,1.000000 
	C668.000000,178.333328 668.000000,355.666656 668.000000,533.000000 
	C561.500000,533.000000 455.000000,533.000000 348.000000,533.000000 
M425.422546,405.131165 
	C425.690002,404.261230 425.957458,403.391327 426.224915,402.521393 
	C424.990417,402.546082 423.347504,402.082550 422.609039,402.700256 
	C421.207733,403.872498 420.324463,405.664093 418.858734,407.711456 
	C420.716583,407.711456 421.836182,407.711456 423.006958,408.551483 
	C423.044708,409.111237 423.082458,409.670959 422.531586,410.542023 
	C419.838409,409.504944 417.145233,408.467896 414.104553,407.297028 
	C413.921753,411.150879 415.686310,413.427338 419.182678,414.154358 
	C422.984161,414.944855 426.659393,414.506622 428.502289,410.496704 
	C428.863525,409.710754 427.532623,408.147095 426.381897,406.486633 
	C425.957794,406.217499 425.533691,405.948395 425.422546,405.131165 
M411.266205,277.048523 
	C410.794128,277.173401 409.922485,277.264771 409.908783,277.428101 
	C409.613739,280.947632 409.044586,284.523804 409.495758,287.962097 
	C409.590851,288.686951 413.477112,289.106903 415.649689,289.306458 
	C417.426544,289.469727 419.252716,289.095520 421.142365,289.884338 
	C421.199066,292.871155 421.051575,295.883118 421.414154,298.832306 
	C421.556793,299.992523 422.632019,301.678467 423.635406,301.990570 
	C431.301941,304.375305 434.199554,301.999664 434.235596,294.118103 
	C434.252045,290.526917 433.217010,288.888947 429.412537,289.189697 
	C426.614532,289.410828 423.776215,289.121307 421.256500,288.165039 
	C421.317871,286.699982 421.425964,285.235138 421.432709,283.769836 
	C421.465790,276.566986 421.350037,276.473969 413.581390,276.965698 
	C413.088135,277.036285 412.594910,277.106873 411.266205,277.048523 
M304.898071,277.853668 
	C304.898071,281.143097 304.898071,284.432526 304.898071,288.066284 
	C309.161926,288.066284 312.919952,288.066284 316.821014,288.066284 
	C317.040131,286.881958 317.375305,285.921265 317.364838,284.964386 
	C317.335693,282.309723 317.162598,279.656616 317.716431,276.509216 
	C321.646912,276.187469 325.577423,275.865723 330.180115,275.488983 
	C330.180115,272.195618 330.356628,269.066376 330.076477,265.978577 
	C329.988342,265.007538 328.832458,263.591095 327.896393,263.325165 
	C320.528503,261.232178 317.478882,263.350098 317.556610,270.835571 
	C317.598816,274.896393 315.963959,275.996277 312.229767,275.881500 
	C309.902985,275.809998 307.550323,276.581451 304.898071,277.853668 
M276.934235,244.310730 
	C272.678986,247.793686 268.423767,251.276627 264.056030,253.605911 
	C264.008179,228.951019 263.849548,204.295410 264.010681,179.641876 
	C264.041046,174.993149 262.576721,173.668671 258.034851,173.756500 
	C244.545593,174.017410 231.042526,174.071320 217.556610,173.735184 
	C212.488998,173.608902 211.056793,175.110596 211.083298,180.184311 
	C211.284348,218.666992 211.193558,257.151215 211.196274,295.634949 
	C211.196350,296.634308 210.842224,297.908234 211.320740,298.575317 
	C212.286957,299.922394 213.672195,301.877502 214.955917,301.933044 
	C220.925278,302.191284 226.919022,301.885986 233.527359,301.827362 
	C249.838287,303.062469 258.959351,292.546112 255.686035,276.522034 
	C255.408752,275.164673 256.228607,272.962128 257.301758,272.045074 
	C269.460175,261.655334 281.713593,251.373688 294.111603,241.271790 
	C295.472595,240.162872 297.886536,240.322754 299.822601,239.948212 
	C303.590302,239.219299 307.368591,238.545151 311.136261,237.816055 
	C313.357513,237.386185 315.778748,236.064102 317.746582,236.566605 
	C329.527588,239.575073 341.243103,242.865341 352.874786,246.408539 
	C354.843353,247.008194 356.962646,248.973511 357.869720,250.857864 
	C360.906403,257.166443 366.325256,260.198914 372.875519,258.581909 
	C379.189636,257.023224 382.698303,251.413498 382.252075,244.553925 
	C382.126526,242.623566 383.004272,240.039413 384.356354,238.695099 
	C394.633789,228.476608 405.221008,218.570389 415.543640,208.396332 
	C419.894409,204.108170 423.104584,200.499222 430.870789,203.273026 
	C440.818024,206.825790 448.142426,201.400055 454.567688,189.830505 
	C461.142120,189.804733 461.169800,189.804749 461.172852,183.354691 
	C461.185181,157.559555 461.110809,131.764053 461.249573,105.969666 
	C461.271423,101.906921 460.541382,99.992706 455.830414,100.095123 
	C441.857605,100.398895 427.870972,100.379074 413.896576,100.119644 
	C409.364075,100.035500 408.300293,101.666191 408.330017,105.908249 
	C408.497864,129.871613 408.381805,153.836823 408.426086,177.801300 
	C408.441437,186.113358 408.638916,194.425064 408.405060,203.305237 
	C404.070862,207.344025 399.736664,211.382797 395.450958,214.298752 
	C395.427338,195.845490 395.313629,177.391541 395.452057,158.939484 
	C395.481598,155.005707 394.183899,153.766434 390.278809,153.820343 
	C376.482910,154.010864 362.678986,154.074371 348.886200,153.792145 
	C344.173065,153.695709 342.585663,154.970627 342.627747,159.879868 
	C342.840179,184.648575 342.695801,209.420349 341.936707,234.239685 
	C337.815887,233.037048 333.695038,231.834412 329.659393,229.611038 
	C329.659393,198.879211 329.659393,168.147400 329.659393,137.002106 
	C327.428711,136.899185 325.810852,136.761765 324.192810,136.759766 
	C310.385620,136.742615 296.575104,136.921814 282.773163,136.652573 
	C278.230591,136.563950 276.811737,137.865814 276.849121,142.497879 
	C277.056091,168.114304 276.922394,193.733337 276.961884,219.351379 
	C276.974426,227.494354 277.160248,235.637054 276.934235,244.310730 
M454.570068,451.052124 
	C454.570068,444.546478 454.570068,438.040833 454.570068,431.535187 
	C456.674622,432.278992 457.477203,433.078888 458.077911,434.009155 
	C462.052948,440.165253 466.023346,446.325073 469.916534,452.533081 
	C472.382385,456.465179 476.203918,454.891846 479.415955,454.573395 
	C480.265991,454.489105 481.318329,451.215424 481.383026,449.374786 
	C481.622833,442.554291 481.490845,435.720673 481.494720,428.891968 
	C481.497833,423.437744 481.495331,417.983490 481.495331,412.705078 
	C471.905212,410.805420 471.464630,411.141266 471.453339,419.659698 
	C471.446472,424.859039 471.452087,430.058380 471.452087,435.257751 
	C470.900421,435.396973 470.348755,435.536163 469.797119,435.675385 
	C465.985291,429.740479 462.171844,423.806641 458.362061,417.870422 
	C454.046661,411.146484 453.754242,411.024139 445.287811,412.505066 
	C445.121948,412.933289 444.792877,413.389374 444.790100,413.847412 
	C444.712830,426.501038 444.601196,439.155640 444.743622,451.807251 
	C444.755402,452.852783 446.619080,454.819489 447.462860,454.736572 
	C449.971588,454.489990 453.895233,456.993195 454.570068,451.052124 
M530.110901,443.535645 
	C530.591492,439.532471 531.072083,435.529266 531.627075,430.906555 
	C526.154114,430.906555 521.849243,430.898956 517.544312,430.908325 
	C510.786346,430.923004 510.165405,431.809021 512.238342,438.674988 
	C514.888611,438.909149 517.602661,439.148926 520.411316,439.397095 
	C518.922119,444.709595 513.993225,447.052795 509.008057,445.309021 
	C502.455719,443.017059 499.338257,434.611664 502.489166,427.732758 
	C505.871277,420.349060 511.889954,419.453766 521.702271,424.874786 
	C528.206848,420.060760 528.584106,418.880707 524.570312,415.902374 
	C514.961548,408.772430 500.687164,411.203400 494.057922,421.098663 
	C487.267181,431.235077 490.217407,445.312103 500.506683,451.869019 
	C510.471008,458.218842 523.685974,454.774780 530.110901,443.535645 
M250.427338,434.342072 
	C250.548828,435.333771 250.622131,436.334167 250.799316,437.315826 
	C252.462402,446.530151 259.329346,453.337646 268.375549,454.763977 
	C277.979675,456.278320 287.203705,451.748383 291.447449,443.433411 
	C295.681580,435.137360 294.299164,425.058746 287.732117,418.453094 
	C281.397003,412.080719 273.666046,410.218536 265.223724,413.114227 
	C255.700394,416.380646 250.837997,423.426788 250.427338,434.342072 
M375.017151,414.834473 
	C374.027130,409.698944 370.022888,412.499268 367.368408,412.226715 
	C366.743622,412.162567 365.195190,414.770630 365.172333,416.167389 
	C364.990051,427.306915 365.225464,438.454010 364.993469,449.591705 
	C364.909851,453.605438 365.951263,455.091766 370.226593,455.098907 
	C374.462097,455.105957 375.455414,453.367950 375.064026,449.739014 
	C374.957642,448.753021 375.036072,447.744720 375.060059,446.747375 
	C375.290802,437.144165 373.225433,438.128296 384.310425,437.922760 
	C387.917786,437.855896 388.958252,439.346832 388.799835,442.675262 
	C388.613220,446.597168 388.756104,450.534760 388.756104,454.332062 
	C398.748627,455.910858 398.760468,455.910889 398.774445,446.756500 
	C398.789154,437.110718 398.510742,427.454407 398.888184,417.823364 
	C399.085114,412.798615 397.209961,411.202332 392.581512,411.937866 
	C391.473755,412.113892 390.361633,412.262238 388.761169,412.494476 
	C388.761169,415.813660 388.766327,418.947754 388.760071,422.081879 
	C388.746460,428.901764 388.744110,428.901764 381.940582,428.910858 
	C375.074829,428.920013 375.074860,428.920013 375.059662,422.255554 
	C375.054749,420.093567 375.049652,417.931610 375.017151,414.834473 
M302.005646,383.068054 
	C302.750061,384.130127 303.482178,386.097778 304.240875,386.108093 
	C309.372253,386.177765 314.689362,386.606537 319.606842,385.461304 
	C329.694672,383.111877 335.270630,373.966919 334.001526,363.396545 
	C332.845093,353.764587 324.242096,346.531708 313.708618,346.335541 
	C302.133698,346.119965 302.209198,346.122009 301.910034,357.203827 
	C301.863861,358.913055 301.224304,361.090240 300.051422,362.188049 
	C297.293060,364.769775 297.235535,367.973267 300.185547,370.528442 
	C301.130188,371.346649 301.782166,372.898987 301.910095,374.181091 
	C302.173340,376.819427 301.993042,379.502075 302.005646,383.068054 
M236.414490,454.949951 
	C237.818344,454.808838 239.222214,454.667694 241.009018,454.488068 
	C240.599045,453.038910 240.418625,452.081696 240.063568,451.194397 
	C235.372940,439.472198 230.571259,427.793396 226.006546,416.022614 
	C224.791718,412.890045 223.036926,411.794067 219.687744,411.820618 
	C216.388687,411.846802 214.572281,412.834595 213.351807,415.995422 
	C208.863892,427.618439 204.116791,439.141174 199.512314,450.719604 
	C199.059341,451.858643 198.915710,453.120728 198.547531,454.665558 
	C203.920624,454.984406 209.102554,456.613495 210.830521,449.438965 
	C211.084763,448.383392 213.192001,447.245422 214.549454,447.090973 
	C217.666885,446.736389 220.925705,446.553223 223.979614,447.109833 
	C225.836472,447.448273 228.263596,448.934479 228.946075,450.538422 
	C230.315201,453.756165 231.952393,455.558746 236.414490,454.949951 
M356.797119,383.006134 
	C356.797119,379.438019 356.797119,375.869904 356.797119,372.301788 
	C357.279480,372.130219 357.761841,371.958649 358.244232,371.787079 
	C360.970184,374.789673 364.132080,377.506226 366.329590,380.855560 
	C370.645172,387.433228 376.589264,386.914398 383.715424,385.761566 
	C378.578979,379.976227 374.044922,374.475159 369.067810,369.409454 
	C366.022064,366.309509 366.172668,364.213989 369.122559,361.151428 
	C373.275208,356.840118 376.895386,352.015961 381.095917,346.989075 
	C374.309570,345.470917 369.401154,346.084534 365.784424,351.599030 
	C363.614441,354.907715 360.730591,357.748199 358.167603,360.799133 
	C357.712494,360.543030 357.257385,360.286957 356.802277,360.030884 
	C356.802277,356.900970 356.614990,353.756897 356.850433,350.644775 
	C357.134674,346.887329 355.221191,346.288177 352.023163,346.231964 
	C348.606567,346.171936 347.258087,347.263672 347.313416,350.798920 
	C347.472382,360.956238 347.350342,371.117737 347.381805,381.277435 
	C347.386719,382.862518 347.616882,384.446869 347.872864,387.666840 
	C351.464752,386.130402 354.116547,384.996063 356.797119,383.006134 
M185.750732,422.452606 
	C186.276474,419.691406 191.137634,416.642120 185.739441,414.232117 
	C176.647598,410.173096 167.775574,411.103638 159.850876,417.177826 
	C153.088379,422.361237 150.053391,429.440796 152.101822,437.889801 
	C154.374893,447.265411 161.025879,452.662109 170.181793,454.382690 
	C174.265533,455.150085 178.813614,454.576324 182.947296,453.676117 
	C188.749542,452.412506 189.096664,450.466583 186.281403,445.233826 
	C184.358597,441.659851 182.117416,443.737122 179.948029,444.300140 
	C173.801865,445.895203 167.503082,443.981567 164.320679,439.350891 
	C161.540237,435.305115 161.751175,431.205048 164.476761,427.247498 
	C167.434341,422.953064 173.939590,421.006348 179.761322,422.565979 
	C180.883713,422.866699 181.952240,423.441498 183.086105,423.599640 
	C183.792984,423.698212 184.575821,423.252197 185.750732,422.452606 
M282.802063,354.409576 
	C283.591644,352.394440 285.848785,350.138092 282.356903,348.599915 
	C274.721130,345.236267 267.133514,345.363831 259.879791,349.676331 
	C253.246140,353.620148 249.410156,359.395355 249.729263,367.309814 
	C250.040665,375.032623 254.309143,380.368011 260.945129,383.780304 
	C268.039276,387.428223 275.381805,387.358704 282.532104,383.924896 
	C283.322876,383.545135 283.854828,381.047668 283.406555,380.005646 
	C282.553925,378.023468 282.372131,375.047607 278.410614,375.983459 
	C274.996368,376.790039 271.157684,377.010773 267.743988,376.319092 
	C262.875061,375.332520 260.088440,371.659424 259.999420,366.592316 
	C259.910278,361.517426 262.601105,357.797882 267.416107,356.601624 
	C270.635773,355.801697 274.218842,356.571716 277.620636,356.351349 
	C279.265503,356.244812 280.867462,355.475616 282.802063,354.409576 
M326.025085,419.181458 
	C327.556915,419.785706 329.154022,421.025909 330.608521,420.876587 
	C335.233978,420.401825 336.244354,422.411682 336.089722,426.635681 
	C335.797241,434.624176 336.233459,442.639465 335.935699,450.627594 
	C335.774384,454.955231 338.116302,454.942657 341.219666,455.003021 
	C344.370239,455.064301 346.185669,454.547791 346.064606,450.705383 
	C345.818085,442.880554 346.236938,435.032532 345.916626,427.213104 
	C345.730865,422.678589 346.658722,420.127350 351.811646,420.971924 
	C355.379669,421.556732 356.311188,419.744934 356.344055,416.376984 
	C356.379150,412.781555 354.976379,411.784912 351.605103,411.884735 
	C345.111328,412.077026 338.581085,412.299835 332.116577,411.823425 
	C326.868347,411.436707 325.094910,413.347931 326.025085,419.181458 
M413.949341,381.189453 
	C413.951691,374.207031 414.136902,367.218109 413.887421,360.244690 
	C413.739014,356.096130 414.831940,353.827972 419.410675,354.425201 
	C422.360199,354.809906 423.595093,353.526764 423.519592,350.450012 
	C423.447906,347.528778 422.456421,346.221771 419.402222,346.279327 
	C412.754700,346.404541 406.101135,346.409180 399.454102,346.269836 
	C396.467712,346.207214 394.805389,346.846924 394.786041,350.333832 
	C394.766937,353.775330 396.319824,354.795990 399.357208,354.441437 
	C403.391388,353.970520 404.718903,355.947327 404.404785,359.702332 
	C404.239044,361.683228 404.381653,363.689789 404.381897,365.684753 
	C404.382751,372.427399 404.382202,379.170044 404.382202,386.831299 
	C408.291748,384.955536 413.808716,389.712982 413.949341,381.189453 
M433.163666,441.122284 
	C430.865509,434.522308 428.749176,427.848938 426.136536,421.375916 
	C425.513031,419.831207 423.239868,418.041687 421.712952,418.030212 
	C420.207672,418.018890 417.950775,419.810364 417.304657,421.348877 
	C414.989838,426.860779 413.208160,432.597321 411.243805,438.255463 
	C409.408569,443.541656 407.597382,448.836182 405.737976,454.236206 
	C410.093475,455.841461 412.129547,454.652222 413.178894,450.709137 
	C413.780823,448.447479 414.808258,445.419495 416.564087,444.507355 
	C422.095978,441.633606 428.402924,444.676727 430.221771,450.755463 
	C431.369141,454.590057 433.245972,455.998810 437.610809,454.072479 
	C436.201660,449.957306 434.816223,445.911407 433.163666,441.122284 
M461.250671,298.026031 
	C461.238251,296.033386 461.408691,294.015045 461.134308,292.059174 
	C461.002228,291.117889 460.222992,289.822327 459.409729,289.491730 
	C452.576813,286.713898 448.246216,289.698334 448.439667,296.936157 
	C448.499542,299.176331 447.972687,302.440521 451.405792,302.003296 
	C454.746979,301.577789 459.756927,305.247345 461.250671,298.026031 
M382.259338,293.893616 
	C382.258514,294.892487 382.373535,295.907440 382.237122,296.887451 
	C381.593048,301.514404 383.584686,303.351990 388.143433,302.714111 
	C389.287506,302.553986 390.679291,303.061584 391.586792,302.573486 
	C392.924408,301.854156 394.406311,300.712402 394.947876,299.390503 
	C395.534363,297.959045 395.509735,295.985779 395.024475,294.483734 
	C394.474091,292.780304 392.790588,289.883545 392.165436,290.023956 
	C388.830750,290.773041 383.812531,286.688324 382.259338,293.893616 
M412.029510,249.756439 
	C415.032654,249.358673 419.769226,249.926056 420.649017,248.345978 
	C422.115570,245.712021 421.567749,241.603180 420.851776,238.338181 
	C420.655548,237.443176 416.811859,236.879242 414.694580,237.010742 
	C412.718994,237.133423 409.118317,238.487183 409.157471,239.117416 
	C409.378143,242.670258 406.495789,247.037109 412.029510,249.756439 
M280.403870,266.860748 
	C275.551208,269.451752 278.562622,273.865417 278.302948,277.405640 
	C278.255768,278.049377 281.758911,279.171814 283.725220,279.670715 
	C285.113495,280.022949 286.769073,279.996948 288.126678,279.570740 
	C289.125427,279.257141 290.354034,278.149933 290.591980,277.178772 
	C292.587616,269.032806 290.793427,266.761658 282.681061,266.791748 
	C282.186249,266.793579 281.691498,266.804382 280.403870,266.860748 
M277.909027,293.049011 
	C277.920074,295.033752 277.711151,297.054474 278.027863,298.989166 
	C278.206665,300.081116 279.025787,301.586029 279.940704,301.956879 
	C286.641144,304.672638 290.979553,301.723969 290.659088,294.581726 
	C290.579498,292.807281 288.933960,289.511749 288.562927,289.588776 
	C285.004333,290.327209 280.093384,286.245514 277.909027,293.049011 
M355.349365,298.867676 
	C355.350555,296.709900 355.497528,294.537842 355.288269,292.400665 
	C355.191071,291.408051 354.459137,289.696381 353.916443,289.656677 
	C350.634308,289.416382 347.145691,288.980133 344.119080,289.901001 
	C343.057526,290.224030 342.702911,294.214050 342.777496,296.505127 
	C342.837921,298.361450 344.139465,301.794281 344.693481,301.754913 
	C348.263153,301.501251 352.674744,304.529114 355.349365,298.867676 
M445.759735,256.042603 
	C451.183136,254.348572 448.030273,249.898758 448.461517,246.739792 
	C448.602142,245.709503 446.489044,243.712921 445.068329,243.287064 
	C443.085846,242.692825 440.744415,242.916626 438.639679,243.276398 
	C437.650879,243.445419 436.320099,244.602478 436.057709,245.561630 
	C433.896973,253.460281 435.953979,256.112793 443.949005,256.087311 
	C444.282013,256.086243 444.615021,256.080353 445.759735,256.042603 
M369.040649,277.319519 
	C368.958923,277.175079 368.884338,276.908997 368.794434,276.903717 
	C365.109344,276.687622 361.028046,275.503845 357.913849,276.744446 
	C356.493500,277.310242 356.801666,282.663391 356.728943,285.854370 
	C356.710358,286.670135 358.105011,288.057434 359.055450,288.271484 
	C367.449493,290.161926 369.396179,288.557068 369.291656,280.154785 
	C369.283386,279.491638 369.233276,278.828979 369.040649,277.319519 
M448.452576,220.960800 
	C449.533203,222.081909 450.486206,223.999176 451.714935,224.196106 
	C460.302856,225.572464 462.698730,223.036514 461.168732,214.491135 
	C460.997681,213.535706 460.261658,212.248383 459.453827,211.908569 
	C453.029175,209.206024 448.421265,212.285004 448.424805,219.123001 
	C448.424988,219.452927 448.429504,219.782867 448.452576,220.960800 
z"/>
<path fill="#13A6F0" opacity="1.000000" stroke="none" 
	d="
M232.904037,301.782349 
	C226.919022,301.885986 220.925278,302.191284 214.955917,301.933044 
	C213.672195,301.877502 212.286957,299.922394 211.320740,298.575317 
	C210.842224,297.908234 211.196350,296.634308 211.196274,295.634949 
	C211.193558,257.151215 211.284348,218.666992 211.083298,180.184311 
	C211.056793,175.110596 212.488998,173.608902 217.556610,173.735184 
	C231.042526,174.071320 244.545593,174.017410 258.034851,173.756500 
	C262.576721,173.668671 264.041046,174.993149 264.010681,179.641876 
	C263.849548,204.295410 264.008179,228.951019 264.036987,254.431702 
	C260.440887,258.242401 256.721313,261.075653 253.332703,264.261017 
	C250.700607,266.735260 248.480484,267.213623 244.988693,265.562317 
	C237.757843,262.142822 228.683304,264.357330 223.473145,270.105499 
	C218.193787,275.929993 217.034088,284.499664 220.562271,291.520630 
	C223.184952,296.739655 227.645004,299.739075 232.904037,301.782349 
z"/>
<path fill="#F6F9FB" opacity="1.000000" stroke="none" 
	d="
M233.215698,301.804871 
	C227.645004,299.739075 223.184952,296.739655 220.562271,291.520630 
	C217.034088,284.499664 218.193787,275.929993 223.473145,270.105499 
	C228.683304,264.357330 237.757843,262.142822 244.988693,265.562317 
	C248.480484,267.213623 250.700607,266.735260 253.332703,264.261017 
	C256.721313,261.075653 260.440887,258.242401 264.093231,255.008514 
	C268.423767,251.276627 272.678986,247.793686 277.458710,243.953094 
	C281.441559,240.755234 285.109680,238.125137 288.261932,234.978287 
	C289.653168,233.589401 290.680115,231.156540 290.693878,229.189377 
	C290.742859,222.196793 294.358765,216.978928 300.707306,215.641403 
	C307.019409,214.311554 312.458923,217.627319 315.307770,224.025528 
	C316.052246,225.697464 317.813843,227.399368 319.509003,228.061310 
	C322.710510,229.311417 326.202789,229.816864 329.574219,230.631775 
	C333.695038,231.834412 337.815887,233.037048 342.620941,234.451874 
	C346.505524,235.572983 349.747986,236.357483 352.895355,237.422897 
	C356.674744,238.702255 359.808533,238.925278 363.467194,236.143021 
	C365.754547,234.403564 369.711639,234.862411 372.918335,234.327942 
	C374.296448,234.098282 376.129852,234.335098 376.975067,233.534790 
	C383.228210,227.613937 389.284363,221.485077 395.402466,215.421600 
	C399.736664,211.382797 404.070862,207.344025 408.903198,202.910889 
	C410.377380,201.616623 411.286835,200.628540 412.341278,199.832550 
	C416.211121,196.911240 417.450012,193.852097 416.278442,188.490906 
	C413.192963,174.371506 426.070557,163.013657 440.053833,166.756165 
	C449.618530,169.316071 454.261200,177.152267 453.677032,189.750259 
	C448.142426,201.400055 440.818024,206.825790 430.870789,203.273026 
	C423.104584,200.499222 419.894409,204.108170 415.543640,208.396332 
	C405.221008,218.570389 394.633789,228.476608 384.356354,238.695099 
	C383.004272,240.039413 382.126526,242.623566 382.252075,244.553925 
	C382.698303,251.413498 379.189636,257.023224 372.875519,258.581909 
	C366.325256,260.198914 360.906403,257.166443 357.869720,250.857864 
	C356.962646,248.973511 354.843353,247.008194 352.874786,246.408539 
	C341.243103,242.865341 329.527588,239.575073 317.746582,236.566605 
	C315.778748,236.064102 313.357513,237.386185 311.136261,237.816055 
	C307.368591,238.545151 303.590302,239.219299 299.822601,239.948212 
	C297.886536,240.322754 295.472595,240.162872 294.111603,241.271790 
	C281.713593,251.373688 269.460175,261.655334 257.301758,272.045074 
	C256.228607,272.962128 255.408752,275.164673 255.686035,276.522034 
	C258.959351,292.546112 249.838287,303.062469 233.215698,301.804871 
z"/>
<path fill="#21ACF1" opacity="1.000000" stroke="none" 
	d="
M329.616821,230.121414 
	C326.202789,229.816864 322.710510,229.311417 319.509003,228.061310 
	C317.813843,227.399368 316.052246,225.697464 315.307770,224.025528 
	C312.458923,217.627319 307.019409,214.311554 300.707306,215.641403 
	C294.358765,216.978928 290.742859,222.196793 290.693878,229.189377 
	C290.680115,231.156540 289.653168,233.589401 288.261932,234.978287 
	C285.109680,238.125137 281.441559,240.755234 277.624969,243.687668 
	C277.160248,235.637054 276.974426,227.494354 276.961884,219.351379 
	C276.922394,193.733337 277.056091,168.114304 276.849121,142.497879 
	C276.811737,137.865814 278.230591,136.563950 282.773163,136.652573 
	C296.575104,136.921814 310.385620,136.742615 324.192810,136.759766 
	C325.810852,136.761765 327.428711,136.899185 329.659393,137.002106 
	C329.659393,168.147400 329.659393,198.879211 329.616821,230.121414 
z"/>
<path fill="#21ABEF" opacity="1.000000" stroke="none" 
	d="
M454.122375,189.790375 
	C454.261200,177.152267 449.618530,169.316071 440.053833,166.756165 
	C426.070557,163.013657 413.192963,174.371506 416.278442,188.490906 
	C417.450012,193.852097 416.211121,196.911240 412.341278,199.832550 
	C411.286835,200.628540 410.377380,201.616623 409.077271,202.626740 
	C408.638916,194.425064 408.441437,186.113358 408.426086,177.801300 
	C408.381805,153.836823 408.497864,129.871613 408.330017,105.908249 
	C408.300293,101.666191 409.364075,100.035500 413.896576,100.119644 
	C427.870972,100.379074 441.857605,100.398895 455.830414,100.095123 
	C460.541382,99.992706 461.271423,101.906921 461.249573,105.969666 
	C461.110809,131.764053 461.185181,157.559555 461.172852,183.354691 
	C461.169800,189.804749 461.142120,189.804733 454.122375,189.790375 
z"/>
<path fill="#13A8F2" opacity="1.000000" stroke="none" 
	d="
M395.426697,214.860168 
	C389.284363,221.485077 383.228210,227.613937 376.975067,233.534790 
	C376.129852,234.335098 374.296448,234.098282 372.918335,234.327942 
	C369.711639,234.862411 365.754547,234.403564 363.467194,236.143021 
	C359.808533,238.925278 356.674744,238.702255 352.895355,237.422897 
	C349.747986,236.357483 346.505524,235.572983 342.990906,234.427551 
	C342.695801,209.420349 342.840179,184.648575 342.627747,159.879868 
	C342.585663,154.970627 344.173065,153.695709 348.886200,153.792145 
	C362.678986,154.074371 376.482910,154.010864 390.278809,153.820343 
	C394.183899,153.766434 395.481598,155.005707 395.452057,158.939484 
	C395.313629,177.391541 395.427338,195.845490 395.426697,214.860168 
z"/>
<path fill="#11A3EC" opacity="1.000000" stroke="none" 
	d="
M454.558655,451.499268 
	C453.895233,456.993195 449.971588,454.489990 447.462860,454.736572 
	C446.619080,454.819489 444.755402,452.852783 444.743622,451.807251 
	C444.601196,439.155640 444.712830,426.501038 444.790100,413.847412 
	C444.792877,413.389374 445.121948,412.933289 445.287811,412.505066 
	C453.754242,411.024139 454.046661,411.146484 458.362061,417.870422 
	C462.171844,423.806641 465.985291,429.740479 469.797119,435.675385 
	C470.348755,435.536163 470.900421,435.396973 471.452087,435.257751 
	C471.452087,430.058380 471.446472,424.859039 471.453339,419.659698 
	C471.464630,411.141266 471.905212,410.805420 481.495331,412.705078 
	C481.495331,417.983490 481.497833,423.437744 481.494720,428.891968 
	C481.490845,435.720673 481.622833,442.554291 481.383026,449.374786 
	C481.318329,451.215424 480.265991,454.489105 479.415955,454.573395 
	C476.203918,454.891846 472.382385,456.465179 469.916534,452.533081 
	C466.023346,446.325073 462.052948,440.165253 458.077911,434.009155 
	C457.477203,433.078888 456.674622,432.278992 454.570068,431.535187 
	C454.570068,438.040833 454.570068,444.546478 454.558655,451.499268 
z"/>
<path fill="#11A2EA" opacity="1.000000" stroke="none" 
	d="
M529.961792,443.883484 
	C523.685974,454.774780 510.471008,458.218842 500.506683,451.869019 
	C490.217407,445.312103 487.267181,431.235077 494.057922,421.098663 
	C500.687164,411.203400 514.961548,408.772430 524.570312,415.902374 
	C528.584106,418.880707 528.206848,420.060760 521.702271,424.874786 
	C511.889954,419.453766 505.871277,420.349060 502.489166,427.732758 
	C499.338257,434.611664 502.455719,443.017059 509.008057,445.309021 
	C513.993225,447.052795 518.922119,444.709595 520.411316,439.397095 
	C517.602661,439.148926 514.888611,438.909149 512.238342,438.674988 
	C510.165405,431.809021 510.786346,430.923004 517.544312,430.908325 
	C521.849243,430.898956 526.154114,430.906555 531.627075,430.906555 
	C531.072083,435.529266 530.591492,439.532471 529.961792,443.883484 
z"/>
<path fill="#11A2EB" opacity="1.000000" stroke="none" 
	d="
M250.417511,433.920868 
	C250.837997,423.426788 255.700394,416.380646 265.223724,413.114227 
	C273.666046,410.218536 281.397003,412.080719 287.732117,418.453094 
	C294.299164,425.058746 295.681580,435.137360 291.447449,443.433411 
	C287.203705,451.748383 277.979675,456.278320 268.375549,454.763977 
	C259.329346,453.337646 252.462402,446.530151 250.799316,437.315826 
	C250.622131,436.334167 250.548828,435.333771 250.417511,433.920868 
M261.190826,434.324646 
	C262.173523,441.191467 264.688660,444.655945 269.797119,445.635284 
	C274.410004,446.519592 278.460175,445.376770 280.983612,441.112915 
	C283.710999,436.504395 283.791779,431.638062 281.531738,426.811218 
	C279.745941,422.997162 276.601685,421.094910 272.409149,421.015228 
	C268.235474,420.935913 264.852753,422.627686 263.032776,426.382874 
	C261.984039,428.546783 261.772614,431.116516 261.190826,434.324646 
z"/>
<path fill="#11A2EB" opacity="1.000000" stroke="none" 
	d="
M375.030884,415.302063 
	C375.049652,417.931610 375.054749,420.093567 375.059662,422.255554 
	C375.074860,428.920013 375.074829,428.920013 381.940582,428.910858 
	C388.744110,428.901764 388.746460,428.901764 388.760071,422.081879 
	C388.766327,418.947754 388.761169,415.813660 388.761169,412.494476 
	C390.361633,412.262238 391.473755,412.113892 392.581512,411.937866 
	C397.209961,411.202332 399.085114,412.798615 398.888184,417.823364 
	C398.510742,427.454407 398.789154,437.110718 398.774445,446.756500 
	C398.760468,455.910889 398.748627,455.910858 388.756104,454.332062 
	C388.756104,450.534760 388.613220,446.597168 388.799835,442.675262 
	C388.958252,439.346832 387.917786,437.855896 384.310425,437.922760 
	C373.225433,438.128296 375.290802,437.144165 375.060059,446.747375 
	C375.036072,447.744720 374.957642,448.753021 375.064026,449.739014 
	C375.455414,453.367950 374.462097,455.105957 370.226593,455.098907 
	C365.951263,455.091766 364.909851,453.605438 364.993469,449.591705 
	C365.225464,438.454010 364.990051,427.306915 365.172333,416.167389 
	C365.195190,414.770630 366.743622,412.162567 367.368408,412.226715 
	C370.022888,412.499268 374.027130,409.698944 375.030884,415.302063 
z"/>
<path fill="#1EA6E9" opacity="1.000000" stroke="none" 
	d="
M302.000427,382.617249 
	C301.993042,379.502075 302.173340,376.819427 301.910095,374.181091 
	C301.782166,372.898987 301.130188,371.346649 300.185547,370.528442 
	C297.235535,367.973267 297.293060,364.769775 300.051422,362.188049 
	C301.224304,361.090240 301.863861,358.913055 301.910034,357.203827 
	C302.209198,346.122009 302.133698,346.119965 313.708618,346.335541 
	C324.242096,346.531708 332.845093,353.764587 334.001526,363.396545 
	C335.270630,373.966919 329.694672,383.111877 319.606842,385.461304 
	C314.689362,386.606537 309.372253,386.177765 304.240875,386.108093 
	C303.482178,386.097778 302.750061,384.130127 302.000427,382.617249 
M316.678833,364.038208 
	C316.320221,366.038635 316.237732,369.668121 315.559509,369.783081 
	C309.873077,370.746918 311.732849,374.406586 311.984283,377.638611 
	C317.981110,378.296997 322.188538,375.405243 323.637695,369.859344 
	C325.246613,363.702209 322.462769,357.391083 317.000061,355.360016 
	C315.587250,354.834717 312.700775,354.655731 312.498779,355.145538 
	C311.794220,356.854095 311.348969,359.183228 312.010803,360.775238 
	C312.518250,361.995941 314.844421,362.460510 316.678833,364.038208 
z"/>
<path fill="#11A2EB" opacity="1.000000" stroke="none" 
	d="
M235.990005,454.950348 
	C231.952393,455.558746 230.315201,453.756165 228.946075,450.538422 
	C228.263596,448.934479 225.836472,447.448273 223.979614,447.109833 
	C220.925705,446.553223 217.666885,446.736389 214.549454,447.090973 
	C213.192001,447.245422 211.084763,448.383392 210.830521,449.438965 
	C209.102554,456.613495 203.920624,454.984406 198.547531,454.665558 
	C198.915710,453.120728 199.059341,451.858643 199.512314,450.719604 
	C204.116791,439.141174 208.863892,427.618439 213.351807,415.995422 
	C214.572281,412.834595 216.388687,411.846802 219.687744,411.820618 
	C223.036926,411.794067 224.791718,412.890045 226.006546,416.022614 
	C230.571259,427.793396 235.372940,439.472198 240.063568,451.194397 
	C240.418625,452.081696 240.599045,453.038910 241.009018,454.488068 
	C239.222214,454.667694 237.818344,454.808838 235.990005,454.950348 
M222.143433,431.448273 
	C221.485565,430.024597 220.827698,428.600922 220.169830,427.177246 
	C219.752960,427.177704 219.336075,427.178162 218.919189,427.178619 
	C217.698547,430.456726 216.477905,433.734833 215.029190,437.625427 
	C218.379364,437.625427 220.907257,437.625427 224.098312,437.625427 
	C223.445663,435.522034 222.922897,433.837250 222.143433,431.448273 
z"/>
<path fill="#1EA4E6" opacity="1.000000" stroke="none" 
	d="
M356.782715,383.433960 
	C354.116547,384.996063 351.464752,386.130402 347.872864,387.666840 
	C347.616882,384.446869 347.386719,382.862518 347.381805,381.277435 
	C347.350342,371.117737 347.472382,360.956238 347.313416,350.798920 
	C347.258087,347.263672 348.606567,346.171936 352.023163,346.231964 
	C355.221191,346.288177 357.134674,346.887329 356.850433,350.644775 
	C356.614990,353.756897 356.802277,356.900970 356.802277,360.030884 
	C357.257385,360.286957 357.712494,360.543030 358.167603,360.799133 
	C360.730591,357.748199 363.614441,354.907715 365.784424,351.599030 
	C369.401154,346.084534 374.309570,345.470917 381.095917,346.989075 
	C376.895386,352.015961 373.275208,356.840118 369.122559,361.151428 
	C366.172668,364.213989 366.022064,366.309509 369.067810,369.409454 
	C374.044922,374.475159 378.578979,379.976227 383.715424,385.761566 
	C376.589264,386.914398 370.645172,387.433228 366.329590,380.855560 
	C364.132080,377.506226 360.970184,374.789673 358.244232,371.787079 
	C357.761841,371.958649 357.279480,372.130219 356.797119,372.301788 
	C356.797119,375.869904 356.797119,379.438019 356.782715,383.433960 
z"/>
<path fill="#11A2EA" opacity="1.000000" stroke="none" 
	d="
M185.537659,422.751587 
	C184.575821,423.252197 183.792984,423.698212 183.086105,423.599640 
	C181.952240,423.441498 180.883713,422.866699 179.761322,422.565979 
	C173.939590,421.006348 167.434341,422.953064 164.476761,427.247498 
	C161.751175,431.205048 161.540237,435.305115 164.320679,439.350891 
	C167.503082,443.981567 173.801865,445.895203 179.948029,444.300140 
	C182.117416,443.737122 184.358597,441.659851 186.281403,445.233826 
	C189.096664,450.466583 188.749542,452.412506 182.947296,453.676117 
	C178.813614,454.576324 174.265533,455.150085 170.181793,454.382690 
	C161.025879,452.662109 154.374893,447.265411 152.101822,437.889801 
	C150.053391,429.440796 153.088379,422.361237 159.850876,417.177826 
	C167.775574,411.103638 176.647598,410.173096 185.739441,414.232117 
	C191.137634,416.642120 186.276474,419.691406 185.537659,422.751587 
z"/>
<path fill="#1EA6E9" opacity="1.000000" stroke="none" 
	d="
M282.645447,354.708008 
	C280.867462,355.475616 279.265503,356.244812 277.620636,356.351349 
	C274.218842,356.571716 270.635773,355.801697 267.416107,356.601624 
	C262.601105,357.797882 259.910278,361.517426 259.999420,366.592316 
	C260.088440,371.659424 262.875061,375.332520 267.743988,376.319092 
	C271.157684,377.010773 274.996368,376.790039 278.410614,375.983459 
	C282.372131,375.047607 282.553925,378.023468 283.406555,380.005646 
	C283.854828,381.047668 283.322876,383.545135 282.532104,383.924896 
	C275.381805,387.358704 268.039276,387.428223 260.945129,383.780304 
	C254.309143,380.368011 250.040665,375.032623 249.729263,367.309814 
	C249.410156,359.395355 253.246140,353.620148 259.879791,349.676331 
	C267.133514,345.363831 274.721130,345.236267 282.356903,348.599915 
	C285.848785,350.138092 283.591644,352.394440 282.645447,354.708008 
z"/>
<path fill="#11A3EC" opacity="1.000000" stroke="none" 
	d="
M325.985291,418.732758 
	C325.094910,413.347931 326.868347,411.436707 332.116577,411.823425 
	C338.581085,412.299835 345.111328,412.077026 351.605103,411.884735 
	C354.976379,411.784912 356.379150,412.781555 356.344055,416.376984 
	C356.311188,419.744934 355.379669,421.556732 351.811646,420.971924 
	C346.658722,420.127350 345.730865,422.678589 345.916626,427.213104 
	C346.236938,435.032532 345.818085,442.880554 346.064606,450.705383 
	C346.185669,454.547791 344.370239,455.064301 341.219666,455.003021 
	C338.116302,454.942657 335.774384,454.955231 335.935699,450.627594 
	C336.233459,442.639465 335.797241,434.624176 336.089722,426.635681 
	C336.244354,422.411682 335.233978,420.401825 330.608521,420.876587 
	C329.154022,421.025909 327.556915,419.785706 325.985291,418.732758 
z"/>
<path fill="#1EA4E6" opacity="1.000000" stroke="none" 
	d="
M413.947845,381.644592 
	C413.808716,389.712982 408.291748,384.955536 404.382202,386.831299 
	C404.382202,379.170044 404.382751,372.427399 404.381897,365.684753 
	C404.381653,363.689789 404.239044,361.683228 404.404785,359.702332 
	C404.718903,355.947327 403.391388,353.970520 399.357208,354.441437 
	C396.319824,354.795990 394.766937,353.775330 394.786041,350.333832 
	C394.805389,346.846924 396.467712,346.207214 399.454102,346.269836 
	C406.101135,346.409180 412.754700,346.404541 419.402222,346.279327 
	C422.456421,346.221771 423.447906,347.528778 423.519592,350.450012 
	C423.595093,353.526764 422.360199,354.809906 419.410675,354.425201 
	C414.831940,353.827972 413.739014,356.096130 413.887421,360.244690 
	C414.136902,367.218109 413.951691,374.207031 413.947845,381.644592 
z"/>
<path fill="#119DE4" opacity="1.000000" stroke="none" 
	d="
M433.297241,441.493896 
	C434.816223,445.911407 436.201660,449.957306 437.610809,454.072479 
	C433.245972,455.998810 431.369141,454.590057 430.221771,450.755463 
	C428.402924,444.676727 422.095978,441.633606 416.564087,444.507355 
	C414.808258,445.419495 413.780823,448.447479 413.178894,450.709137 
	C412.129547,454.652222 410.093475,455.841461 405.737976,454.236206 
	C407.597382,448.836182 409.408569,443.541656 411.243805,438.255463 
	C413.208160,432.597321 414.989838,426.860779 417.304657,421.348877 
	C417.950775,419.810364 420.207672,418.018890 421.712952,418.030212 
	C423.239868,418.041687 425.513031,419.831207 426.136536,421.375916 
	C428.749176,427.848938 430.865509,434.522308 433.297241,441.493896 
M424.955353,433.630096 
	C424.094482,431.036774 423.233612,428.443420 422.372742,425.850098 
	C421.944519,425.856659 421.516296,425.863190 421.088074,425.869751 
	C419.815308,430.055511 418.542511,434.241302 417.012848,439.271820 
	C420.662079,439.093964 423.172852,438.971558 426.096375,438.829041 
	C425.706757,436.914001 425.450531,435.654510 424.955353,433.630096 
z"/>
<path fill="#11A2EA" opacity="1.000000" stroke="none" 
	d="
M305.209259,276.974640 
	C307.550323,276.581451 309.902985,275.809998 312.229767,275.881500 
	C315.963959,275.996277 317.598816,274.896393 317.556610,270.835571 
	C317.478882,263.350098 320.528503,261.232178 327.896393,263.325165 
	C328.832458,263.591095 329.988342,265.007538 330.076477,265.978577 
	C330.356628,269.066376 330.180115,272.195618 330.180115,275.488983 
	C325.577423,275.865723 321.646912,276.187469 316.920349,276.754456 
	C312.485962,276.991333 308.847595,276.982971 305.209259,276.974640 
z"/>
<path fill="#1DA1E3" opacity="1.000000" stroke="none" 
	d="
M420.955841,289.059387 
	C423.776215,289.121307 426.614532,289.410828 429.412537,289.189697 
	C433.217010,288.888947 434.252045,290.526917 434.235596,294.118103 
	C434.199554,301.999664 431.301941,304.375305 423.635406,301.990570 
	C422.632019,301.678467 421.556793,299.992523 421.414154,298.832306 
	C421.051575,295.883118 421.199066,292.871155 421.078125,289.450653 
	C421.013855,289.016968 420.955841,289.059387 420.955841,289.059387 
z"/>
<path fill="#119DE4" opacity="1.000000" stroke="none" 
	d="
M461.240845,298.435089 
	C459.756927,305.247345 454.746979,301.577789 451.405792,302.003296 
	C447.972687,302.440521 448.499542,299.176331 448.439667,296.936157 
	C448.246216,289.698334 452.576813,286.713898 459.409729,289.491730 
	C460.222992,289.822327 461.002228,291.117889 461.134308,292.059174 
	C461.408691,294.015045 461.238251,296.033386 461.240845,298.435089 
z"/>
<path fill="#119DE4" opacity="1.000000" stroke="none" 
	d="
M382.267670,293.464874 
	C383.812531,286.688324 388.830750,290.773041 392.165436,290.023956 
	C392.790588,289.883545 394.474091,292.780304 395.024475,294.483734 
	C395.509735,295.985779 395.534363,297.959045 394.947876,299.390503 
	C394.406311,300.712402 392.924408,301.854156 391.586792,302.573486 
	C390.679291,303.061584 389.287506,302.553986 388.143433,302.714111 
	C383.584686,303.351990 381.593048,301.514404 382.237122,296.887451 
	C382.373535,295.907440 382.258514,294.892487 382.267670,293.464874 
z"/>
<path fill="#1EA4E6" opacity="1.000000" stroke="none" 
	d="
M411.605621,249.731750 
	C406.495789,247.037109 409.378143,242.670258 409.157471,239.117416 
	C409.118317,238.487183 412.718994,237.133423 414.694580,237.010742 
	C416.811859,236.879242 420.655548,237.443176 420.851776,238.338181 
	C421.567749,241.603180 422.115570,245.712021 420.649017,248.345978 
	C419.769226,249.926056 415.032654,249.358673 411.605621,249.731750 
z"/>
<path fill="#119DE4" opacity="1.000000" stroke="none" 
	d="
M280.800293,266.835876 
	C281.691498,266.804382 282.186249,266.793579 282.681061,266.791748 
	C290.793427,266.761658 292.587616,269.032806 290.591980,277.178772 
	C290.354034,278.149933 289.125427,279.257141 288.126678,279.570740 
	C286.769073,279.996948 285.113495,280.022949 283.725220,279.670715 
	C281.758911,279.171814 278.255768,278.049377 278.302948,277.405640 
	C278.562622,273.865417 275.551208,269.451752 280.800293,266.835876 
z"/>
<path fill="#1DA1E3" opacity="1.000000" stroke="none" 
	d="
M277.923920,292.638733 
	C280.093384,286.245514 285.004333,290.327209 288.562927,289.588776 
	C288.933960,289.511749 290.579498,292.807281 290.659088,294.581726 
	C290.979553,301.723969 286.641144,304.672638 279.940704,301.956879 
	C279.025787,301.586029 278.206665,300.081116 278.027863,298.989166 
	C277.711151,297.054474 277.920074,295.033752 277.923920,292.638733 
z"/>
<path fill="#11A2EA" opacity="1.000000" stroke="none" 
	d="
M355.325317,299.269226 
	C352.674744,304.529114 348.263153,301.501251 344.693481,301.754913 
	C344.139465,301.794281 342.837921,298.361450 342.777496,296.505127 
	C342.702911,294.214050 343.057526,290.224030 344.119080,289.901001 
	C347.145691,288.980133 350.634308,289.416382 353.916443,289.656677 
	C354.459137,289.696381 355.191071,291.408051 355.288269,292.400665 
	C355.497528,294.537842 355.350555,296.709900 355.325317,299.269226 
z"/>
<path fill="#1DA1E3" opacity="1.000000" stroke="none" 
	d="
M445.353882,256.059662 
	C444.615021,256.080353 444.282013,256.086243 443.949005,256.087311 
	C435.953979,256.112793 433.896973,253.460281 436.057709,245.561630 
	C436.320099,244.602478 437.650879,243.445419 438.639679,243.276398 
	C440.744415,242.916626 443.085846,242.692825 445.068329,243.287064 
	C446.489044,243.712921 448.602142,245.709503 448.461517,246.739792 
	C448.030273,249.898758 451.183136,254.348572 445.353882,256.059662 
z"/>
<path fill="#1EA6E9" opacity="1.000000" stroke="none" 
	d="
M369.121613,277.742798 
	C369.233276,278.828979 369.283386,279.491638 369.291656,280.154785 
	C369.396179,288.557068 367.449493,290.161926 359.055450,288.271484 
	C358.105011,288.057434 356.710358,286.670135 356.728943,285.854370 
	C356.801666,282.663391 356.493500,277.310242 357.913849,276.744446 
	C361.028046,275.503845 365.109344,276.687622 368.794434,276.903717 
	C368.884338,276.908997 368.958923,277.175079 369.121613,277.742798 
z"/>
<path fill="#1EA6E9" opacity="1.000000" stroke="none" 
	d="
M305.053650,277.414154 
	C308.847595,276.982971 312.485962,276.991333 316.585358,277.001282 
	C317.162598,279.656616 317.335693,282.309723 317.364838,284.964386 
	C317.375305,285.921265 317.040131,286.881958 316.821014,288.066284 
	C312.919952,288.066284 309.161926,288.066284 304.898071,288.066284 
	C304.898071,284.432526 304.898071,281.143097 305.053650,277.414154 
z"/>
<path fill="#11A2EB" opacity="1.000000" stroke="none" 
	d="
M421.035461,288.988281 
	C419.252716,289.095520 417.426544,289.469727 415.649689,289.306458 
	C413.477112,289.106903 409.590851,288.686951 409.495758,287.962097 
	C409.044586,284.523804 409.613739,280.947632 409.908783,277.428101 
	C409.922485,277.264771 410.794128,277.173401 411.854370,277.203857 
	C412.931061,277.298340 413.419556,277.237488 413.908081,277.176666 
	C421.350037,276.473969 421.465790,276.566986 421.432709,283.769836 
	C421.425964,285.235138 421.317871,286.699982 421.106171,288.612213 
	C420.955841,289.059387 421.013855,289.016968 421.035461,288.988281 
z"/>
<path fill="#119DE4" opacity="1.000000" stroke="none" 
	d="
M448.442291,220.536804 
	C448.429504,219.782867 448.424988,219.452927 448.424805,219.123001 
	C448.421265,212.285004 453.029175,209.206024 459.453827,211.908569 
	C460.261658,212.248383 460.997681,213.535706 461.168732,214.491135 
	C462.698730,223.036514 460.302856,225.572464 451.714935,224.196106 
	C450.486206,223.999176 449.533203,222.081909 448.442291,220.536804 
M450.793976,214.345932 
	C450.550079,215.289398 449.924988,216.331955 450.139282,217.156311 
	C450.630249,219.045074 451.095734,221.871246 452.369720,222.402420 
	C454.174286,223.154816 457.464264,222.955124 458.698303,221.730423 
	C459.930237,220.507797 460.243866,217.168518 459.487762,215.379440 
	C457.861084,211.530411 454.374390,213.018707 450.793976,214.345932 
z"/>
<path fill="#119DE4" opacity="1.000000" stroke="none" 
	d="
M426.982178,406.942139 
	C427.532623,408.147095 428.863525,409.710754 428.502289,410.496704 
	C426.659393,414.506622 422.984161,414.944855 419.182678,414.154358 
	C415.686310,413.427338 413.921753,411.150879 414.104553,407.297028 
	C417.145233,408.467896 419.838409,409.504944 423.158142,410.350342 
	C424.850494,409.086517 425.916351,408.014343 426.982178,406.942139 
z"/>
<path fill="#119DE4" opacity="1.000000" stroke="none" 
	d="
M422.955811,407.711456 
	C421.836182,407.711456 420.716583,407.711456 418.858734,407.711456 
	C420.324463,405.664093 421.207733,403.872498 422.609039,402.700256 
	C423.347504,402.082550 424.990417,402.546082 426.224915,402.521393 
	C425.957458,403.391327 425.690002,404.261230 425.029419,405.493408 
	C424.076111,406.474213 423.515961,407.092834 422.955811,407.711456 
z"/>
<path fill="#064768" opacity="1.000000" stroke="none" 
	d="
M422.981384,408.131470 
	C423.515961,407.092834 424.076111,406.474213 424.872925,405.767456 
	C425.533691,405.948395 425.957794,406.217499 426.682068,406.714417 
	C425.916351,408.014343 424.850494,409.086517 423.452454,410.194702 
	C423.082458,409.670959 423.044708,409.111237 422.981384,408.131470 
z"/>
<path fill="#1DA1E3" opacity="1.000000" stroke="none" 
	d="
M413.744751,277.071167 
	C413.419556,277.237488 412.931061,277.298340 412.272095,277.268341 
	C412.594910,277.106873 413.088135,277.036285 413.744751,277.071167 
z"/>
<path fill="#043954" opacity="1.000000" stroke="none" 
	d="
M261.187561,433.914124 
	C261.772614,431.116516 261.984039,428.546783 263.032776,426.382874 
	C264.852753,422.627686 268.235474,420.935913 272.409149,421.015228 
	C276.601685,421.094910 279.745941,422.997162 281.531738,426.811218 
	C283.791779,431.638062 283.710999,436.504395 280.983612,441.112915 
	C278.460175,445.376770 274.410004,446.519592 269.797119,445.635284 
	C264.688660,444.655945 262.173523,441.191467 261.187561,433.914124 
z"/>
<path fill="#043954" opacity="1.000000" stroke="none" 
	d="
M316.520264,363.649780 
	C314.844421,362.460510 312.518250,361.995941 312.010803,360.775238 
	C311.348969,359.183228 311.794220,356.854095 312.498779,355.145538 
	C312.700775,354.655731 315.587250,354.834717 317.000061,355.360016 
	C322.462769,357.391083 325.246613,363.702209 323.637695,369.859344 
	C322.188538,375.405243 317.981110,378.296997 311.984283,377.638611 
	C311.732849,374.406586 309.873077,370.746918 315.559509,369.783081 
	C316.237732,369.668121 316.320221,366.038635 316.520264,363.649780 
z"/>
<path fill="#064768" opacity="1.000000" stroke="none" 
	d="
M222.271790,431.800354 
	C222.922897,433.837250 223.445663,435.522034 224.098312,437.625427 
	C220.907257,437.625427 218.379364,437.625427 215.029190,437.625427 
	C216.477905,433.734833 217.698547,430.456726 218.919189,427.178619 
	C219.336075,427.178162 219.752960,427.177704 220.169830,427.177246 
	C220.827698,428.600922 221.485565,430.024597 222.271790,431.800354 
z"/>
<path fill="#064768" opacity="1.000000" stroke="none" 
	d="
M425.074829,434.012573 
	C425.450531,435.654510 425.706757,436.914001 426.096375,438.829041 
	C423.172852,438.971558 420.662079,439.093964 417.012848,439.271820 
	C418.542511,434.241302 419.815308,430.055511 421.088074,425.869751 
	C421.516296,425.863190 421.944519,425.856659 422.372742,425.850098 
	C423.233612,428.443420 424.094482,431.036774 425.074829,434.012573 
z"/>
<path fill="#13A8F2" opacity="1.000000" stroke="none" 
	d="
M451.087097,214.060089 
	C454.374390,213.018707 457.861084,211.530411 459.487762,215.379440 
	C460.243866,217.168518 459.930237,220.507797 458.698303,221.730423 
	C457.464264,222.955124 454.174286,223.154816 452.369720,222.402420 
	C451.095734,221.871246 450.630249,219.045074 450.139282,217.156311 
	C449.924988,216.331955 450.550079,215.289398 451.087097,214.060089 
z"/>
</svg>