<svg xmlns="http://www.w3.org/2000/svg" xmlns:xlink="http://www.w3.org/1999/xlink" version="1.1" width="256" height="256" viewBox="0 0 256 256" xml:space="preserve">

<defs>
</defs>
<g style="stroke: none; stroke-width: 0; stroke-dasharray: none; stroke-linecap: butt; stroke-linejoin: miter; stroke-miterlimit: 10; fill: none; fill-rule: nonzero; opacity: 1;" transform="translate(1.4065934065934016 1.4065934065934016) scale(2.81 2.81)" >
	<path d="M 10.681 88.074 c -1.509 0 -2.928 -0.588 -3.995 -1.655 l -3.104 -3.104 c -1.067 -1.067 -1.655 -2.486 -1.655 -3.995 c 0 -1.51 0.587 -2.929 1.655 -3.995 l 26.257 -26.257 c -2.014 -7.51 1.917 -15.581 9.151 -18.577 c 4.563 -1.89 9.834 -1.488 14.101 1.076 c 0.265 0.158 0.44 0.43 0.478 0.735 c 0.038 0.306 -0.067 0.611 -0.285 0.829 L 40.531 45.883 c -0.988 0.989 -0.988 2.597 0 3.585 c 0.958 0.957 2.627 0.957 3.585 0 l 12.755 -12.756 c 0.218 -0.217 0.526 -0.322 0.828 -0.286 c 0.306 0.037 0.576 0.213 0.735 0.477 c 0.447 0.741 0.798 1.424 1.073 2.086 c 3.313 8.001 -0.499 17.205 -8.499 20.519 c -3.188 1.321 -6.742 1.548 -10.074 0.651 l -26.26 26.259 C 13.609 87.486 12.19 88.074 10.681 88.074 z M 44.979 31.292 c -1.763 0 -3.532 0.347 -5.223 1.047 c -6.478 2.683 -9.92 10.028 -7.837 16.722 c 0.11 0.354 0.015 0.741 -0.248 1.004 L 4.996 76.739 c -0.689 0.689 -1.069 1.605 -1.069 2.581 c 0 0.975 0.379 1.892 1.069 2.581 L 8.1 85.005 c 1.379 1.379 3.783 1.379 5.162 0 l 26.677 -26.677 c 0.262 -0.263 0.648 -0.358 1.004 -0.248 c 3.054 0.951 6.356 0.801 9.301 -0.419 c 6.981 -2.892 10.309 -10.924 7.417 -17.905 c -0.095 -0.228 -0.198 -0.456 -0.314 -0.69 L 45.531 50.883 c -0.856 0.856 -1.995 1.328 -3.207 1.328 s -2.351 -0.472 -3.207 -1.328 c -1.768 -1.769 -1.768 -4.646 0 -6.414 l 11.805 -11.804 C 49.035 31.753 47.011 31.292 44.979 31.292 z" style="stroke: none; stroke-width: 1; stroke-dasharray: none; stroke-linecap: butt; stroke-linejoin: miter; stroke-miterlimit: 10; fill: rgb(0,0,0); fill-rule: nonzero; opacity: 1;" transform=" matrix(1 0 0 1 0 0) " stroke-linecap="round" />
	<path d="M 49.972 90 H 40.03 c -3.773 -0.002 -6.841 -3.071 -6.841 -6.842 c 0 -1.816 -0.997 -2.829 -1.832 -3.358 c -0.261 -0.165 -0.431 -0.442 -0.46 -0.749 c -0.029 -0.308 0.085 -0.611 0.31 -0.823 l 10.219 -9.63 c 0.216 -0.203 0.507 -0.305 0.806 -0.266 c 3.977 0.479 8.045 -0.082 11.762 -1.621 c 5.789 -2.397 10.303 -6.916 12.707 -12.722 c 2.405 -5.807 2.409 -12.192 0.011 -17.981 c -4.958 -11.971 -18.73 -17.676 -30.704 -12.719 c -9.678 4.009 -15.577 14.076 -14.345 24.482 c 0.036 0.304 -0.069 0.607 -0.286 0.824 l -9.865 9.87 c -0.205 0.205 -0.481 0.317 -0.779 0.29 c -0.29 -0.021 -0.556 -0.166 -0.729 -0.397 c -0.768 -1.026 -1.832 -1.547 -3.162 -1.548 c -0.001 0 -0.003 0 -0.004 0 c -1.825 0 -3.541 -0.711 -4.833 -2.003 C 0.712 53.515 0 51.797 0 49.969 V 40.03 c 0 -1.827 0.711 -3.544 2.003 -4.837 c 1.293 -1.292 3.011 -2.004 4.838 -2.004 c 0 0 0.001 0 0.001 0 c 2.411 0 3.382 -1.724 3.688 -2.465 c 0.308 -0.743 0.839 -2.651 -0.865 -4.355 c -1.292 -1.292 -2.004 -3.01 -2.003 -4.838 c 0 -1.828 0.712 -3.546 2.004 -4.838 l 7.027 -7.027 c 1.293 -1.292 3.01 -2.003 4.833 -2.003 c 0.002 0 0.003 0 0.004 0 c 1.827 0 3.545 0.712 4.837 2.004 c 1.703 1.704 3.613 1.172 4.354 0.865 c 0.742 -0.307 2.466 -1.28 2.466 -3.69 C 33.192 3.07 36.26 0.001 40.029 0 l 9.941 0 c 0.001 0 0.002 0 0.002 0 c 1.826 0 3.543 0.711 4.835 2.004 c 1.291 1.291 2.003 3.008 2.004 4.835 c 0 2.414 1.725 3.386 2.466 3.692 c 0.579 0.241 2.599 0.889 4.354 -0.865 C 66.296 7.001 70.636 7 73.304 9.665 l 7.029 7.03 c 1.292 1.292 2.004 3.01 2.004 4.837 c 0 1.828 -0.712 3.546 -2.004 4.838 c -1.754 1.754 -1.106 3.775 -0.866 4.353 c 0.309 0.743 1.283 2.468 3.691 2.468 c 3.772 0.001 6.841 3.069 6.842 6.839 l -0.001 9.94 c -0.002 3.769 -3.07 6.837 -6.839 6.842 h -0.001 c -2.411 0 -3.385 1.725 -3.691 2.466 c -0.241 0.58 -0.889 2.601 0.865 4.354 c 2.665 2.666 2.666 7.005 0.003 9.673 l -7.031 7.03 c -2.668 2.662 -7.006 2.662 -9.672 0.002 c -1.704 -1.707 -3.613 -1.175 -4.355 -0.868 c -0.742 0.308 -2.467 1.282 -2.467 3.691 c 0 1.827 -0.712 3.545 -2.004 4.837 c -0.643 0.643 -1.39 1.143 -2.219 1.485 C 51.761 89.824 50.881 89.999 49.972 90 z M 33.42 78.89 c 0.882 0.85 1.769 2.215 1.769 4.269 c 0 2.668 2.171 4.84 4.841 4.842 h 9.94 c 0.645 -0.001 1.268 -0.124 1.853 -0.366 c 0.586 -0.242 1.113 -0.596 1.569 -1.052 c 0.914 -0.914 1.418 -2.13 1.418 -3.423 c 0 -3.717 2.833 -5.18 3.701 -5.539 c 0.869 -0.36 3.906 -1.329 6.535 1.301 c 1.885 1.883 4.956 1.885 6.845 -0.002 l 7.029 -7.029 c 1.885 -1.887 1.884 -4.958 -0.002 -6.845 c -2.633 -2.633 -1.659 -5.667 -1.298 -6.534 c 0.358 -0.867 1.819 -3.7 5.536 -3.7 c 0.001 0 0.001 0 0.002 0 c 2.667 -0.003 4.838 -2.176 4.84 -4.843 L 88 40.029 c -0.001 -2.668 -2.172 -4.839 -4.839 -4.84 c -3.718 0 -5.181 -2.833 -5.541 -3.701 c -0.36 -0.866 -1.333 -3.902 1.299 -6.534 c 0.914 -0.914 1.418 -2.13 1.418 -3.424 c 0 -1.293 -0.504 -2.508 -1.418 -3.423 l -7.029 -7.029 c -1.888 -1.886 -4.96 -1.884 -6.846 0.002 c -2.632 2.632 -5.667 1.66 -6.533 1.299 c -0.866 -0.358 -3.7 -1.818 -3.7 -5.54 c -0.001 -1.293 -0.505 -2.508 -1.418 -3.422 C 52.479 2.504 51.263 2 49.972 2 c -0.001 0 -0.001 0 -0.002 0 l -9.94 0 c -2.667 0.001 -4.838 2.173 -4.84 4.842 c 0 3.718 -2.833 5.179 -3.701 5.538 c -0.868 0.36 -3.905 1.33 -6.533 -1.298 c -0.915 -0.915 -2.13 -1.418 -3.423 -1.418 c -0.001 0 -0.002 0 -0.003 0 c -1.291 0 -2.505 0.503 -3.42 1.418 l -7.027 7.027 c -0.915 0.914 -1.418 2.13 -1.418 3.424 c 0 1.293 0.503 2.509 1.417 3.423 c 2.629 2.629 1.659 5.666 1.299 6.533 c -0.358 0.867 -1.817 3.701 -5.536 3.701 c -0.001 0 -0.001 0 -0.002 0 c -1.292 0 -2.508 0.504 -3.423 1.418 C 2.503 37.522 2 38.737 2 40.03 v 9.939 c 0 1.294 0.503 2.51 1.417 3.424 s 2.128 1.417 3.419 1.417 c 0.001 0 0.002 0 0.003 0 c 1.84 0.001 3.127 0.701 3.997 1.499 l 8.785 -8.789 c -1.099 -11.117 5.268 -21.791 15.619 -26.079 c 12.99 -5.383 27.937 0.811 33.317 13.801 c 2.603 6.283 2.599 13.213 -0.011 19.512 c -2.609 6.3 -7.506 11.202 -13.789 13.805 c -3.888 1.61 -8.129 2.234 -12.298 1.812 L 33.42 78.89 z" style="stroke: none; stroke-width: 1; stroke-dasharray: none; stroke-linecap: butt; stroke-linejoin: miter; stroke-miterlimit: 10; fill: rgb(0,0,0); fill-rule: nonzero; opacity: 1;" transform=" matrix(1 0 0 1 0 0) " stroke-linecap="round" />
</g>
</svg>